<svg width="29" height="18" viewBox="0 0 29 18" fill="none" xmlns="http://www.w3.org/2000/svg">
<rect x="0.420455" y="0.69316" width="28.1591" height="16.1591" rx="1.26136" fill="white" stroke="#E8EAEB" stroke-width="0.840909"/>
<path d="M16.9257 13.788H11.5215V4.02808H16.9258L16.9257 13.788Z" fill="#FF5F00"/>
<path d="M11.8633 8.90829C11.8633 6.92849 12.7857 5.16487 14.2222 4.02831C13.1349 3.16673 11.79 2.69912 10.4054 2.70118C6.99445 2.70118 4.22949 5.48016 4.22949 8.90829C4.22949 12.3364 6.99445 15.1154 10.4054 15.1154C11.7901 15.1175 13.1349 14.6499 14.2223 13.7883C12.7859 12.6519 11.8633 10.8882 11.8633 8.90829Z" fill="#EB001B"/>
<path d="M24.2159 8.90829C24.2159 12.3364 21.451 15.1154 18.0401 15.1154C16.6552 15.1174 15.3102 14.6498 14.2227 13.7883C15.6595 12.6517 16.5819 10.8882 16.5819 8.90829C16.5819 6.92839 15.6595 5.16487 14.2227 4.02831C15.3102 3.16676 16.6551 2.69916 18.04 2.70118C21.4509 2.70118 24.2158 5.48016 24.2158 8.90829" fill="#F79E1B"/>
</svg>
