<svg width="45" height="50" viewBox="0 0 45 50" fill="none" xmlns="http://www.w3.org/2000/svg">
<path d="M21.3178 3.33431L5.14751 12.6796L22.7895 22.8619L40.4406 12.6796L24.2611 3.33431C23.3505 2.81002 22.2284 2.81002 21.3178 3.33431ZM3.67581 15.2274V33.8996C3.67581 34.9482 4.2369 35.9232 5.14751 36.4474L21.3178 45.7835V25.4097L3.67581 15.2182V15.2274ZM24.2611 45.7927L40.4406 36.4474C41.3512 35.9232 41.9123 34.9482 41.9123 33.8996V15.2274L24.2703 25.4189V45.7927H24.2611ZM19.8461 0.786437C21.6673 -0.262146 23.9116 -0.262146 25.7328 0.786437L41.9123 10.1225C43.7335 11.1711 44.8557 13.1211 44.8557 15.2182V33.8904C44.8557 35.9967 43.7335 37.9375 41.9123 38.9861L25.7328 48.3406C23.9116 49.3892 21.6673 49.3892 19.8461 48.3406L3.67581 39.0045C1.85459 37.9559 0.732422 36.0059 0.732422 33.9088V15.2366C0.732422 13.1303 1.85459 11.1895 3.67581 10.1409L19.8461 0.786437Z" fill="white"/>
</svg>
