<svg width="24" height="25" viewBox="0 0 24 25" fill="none" xmlns="http://www.w3.org/2000/svg">
<path fill-rule="evenodd" clip-rule="evenodd" d="M5.69817 7.50061L10.0968 3.28528C11.1605 2.26591 12.8385 2.26591 13.9022 3.28528L18.3008 7.50061H20.8465C21.4551 7.50061 21.9225 8.0396 21.8365 8.64203L20.3675 18.9249C20.1563 20.4028 18.8906 21.5006 17.3976 21.5006H6.60141C5.10846 21.5006 3.8427 20.4028 3.63156 18.9249L2.16258 8.64203C2.07652 8.0396 2.54398 7.50061 3.15253 7.50061H5.69817ZM11.1346 4.36827C11.6181 3.90491 12.3809 3.90491 12.8644 4.36827L16.1329 7.50061H7.86609L11.1346 4.36827ZM3.72904 9.00061L5.11648 18.7127C5.22205 19.4517 5.85493 20.0006 6.60141 20.0006H17.3976C18.1441 20.0006 18.777 19.4517 18.8826 18.7127L20.27 9.00061H3.72904Z" fill="white"/>
<path fill-rule="evenodd" clip-rule="evenodd" d="M8 11.7502C8.41421 11.7502 8.75 12.086 8.75 12.5002V16.5002C8.75 16.9145 8.41421 17.2502 8 17.2502C7.58579 17.2502 7.25 16.9145 7.25 16.5002V12.5002C7.25 12.086 7.58579 11.7502 8 11.7502Z" fill="white"/>
<path fill-rule="evenodd" clip-rule="evenodd" d="M12 11.7502C12.4142 11.7502 12.75 12.086 12.75 12.5002V16.5002C12.75 16.9145 12.4142 17.2502 12 17.2502C11.5858 17.2502 11.25 16.9145 11.25 16.5002V12.5002C11.25 12.086 11.5858 11.7502 12 11.7502Z" fill="white"/>
<path fill-rule="evenodd" clip-rule="evenodd" d="M16 11.7502C16.4142 11.7502 16.75 12.086 16.75 12.5002V16.5002C16.75 16.9145 16.4142 17.2502 16 17.2502C15.5858 17.2502 15.25 16.9145 15.25 16.5002V12.5002C15.25 12.086 15.5858 11.7502 16 11.7502Z" fill="white"/>
</svg>
