<?xml version="1.0" encoding="UTF-8" standalone="no"?>
<!DOCTYPE svg PUBLIC "-//W3C//DTD SVG 1.1//EN" "http://www.w3.org/Graphics/SVG/1.1/DTD/svg11.dtd">
<svg width="100%" height="100%" viewBox="0 0 1207 328" version="1.1" xmlns="http://www.w3.org/2000/svg" xmlns:xlink="http://www.w3.org/1999/xlink" xml:space="preserve" xmlns:serif="http://www.serif.com/" style="fill-rule:evenodd;clip-rule:evenodd;stroke-linejoin:round;stroke-miterlimit:2;">
    <g transform="matrix(1,0,0,1,-26.1575,-25.2788)">
        <g transform="matrix(4.16667,0,0,4.16667,0,71.0525)">
            <path d="M51.664,36.782C51.664,21.987 48.529,13.587 38.876,13.587C29.221,13.587 26.087,21.987 26.087,36.782C26.087,51.576 29.221,60.102 38.876,60.102C48.529,60.102 51.664,51.576 51.664,36.782M71.473,36.782C71.473,54.711 58.81,67.625 38.876,67.625C18.941,67.625 6.278,54.711 6.278,36.782C6.278,18.978 18.941,6.067 38.876,6.067C58.81,6.067 71.473,18.978 71.473,36.782" style="fill:white;fill-rule:nonzero;"/>
        </g>
        <g transform="matrix(4.16667,0,0,4.16667,0,71.05)">
            <path d="M113.344,21.988C112.466,16.722 110.711,13.588 105.946,13.588C97.421,13.588 95.038,21.988 95.038,36.782C95.038,51.577 100.179,59.224 110.585,59.224C118.108,59.224 123.248,54.46 127.133,45.308L134.029,49.194C129.014,60.604 121.242,67.625 107.326,67.625C87.767,67.625 75.23,54.711 75.23,36.782C75.23,18.979 87.767,6.066 105.946,6.066C120.49,6.066 130.644,12.71 130.644,21.487C130.644,27.003 126.759,30.012 122.245,30.012C117.73,30.012 114.221,27.379 113.344,21.988" style="fill:white;fill-rule:nonzero;"/>
        </g>
        <g transform="matrix(4.16667,0,0,4.16667,0,-0.524167)">
            <path d="M160.229,84.677C148.319,84.677 140.923,80.665 140.923,67.626L140.923,33.149L134.026,33.149L134.026,28.258C144.557,24.373 150.45,17.227 153.083,6.193L160.229,6.193L160.229,25.125L174.02,25.125L174.02,33.149L160.229,33.149L160.229,67.626C160.229,73.895 162.862,76.152 167,76.152C169.131,76.152 172.14,75.65 174.02,74.898L174.02,82.546C170.51,83.674 164.868,84.677 160.229,84.677" style="fill:white;fill-rule:nonzero;"/>
        </g>
        <g transform="matrix(4.16667,0,0,4.16667,0,63.2108)">
            <path d="M211.379,21.363C209.122,21.363 206.74,22.366 204.859,24.873L204.859,56.844C204.859,60.604 206.113,61.732 211.881,62.359L211.881,67.625L178.656,67.625L178.656,62.359C184.298,61.732 185.677,60.604 185.677,56.844L185.677,27.13C185.677,24.497 184.799,23.369 182.543,23.369L178.656,23.369L178.656,18.479L197.839,7.948L204.859,7.948L204.859,15.345C208.621,11.082 214.514,7.948 220.28,7.948C227.051,7.948 231.314,11.709 231.314,17.978C231.314,24.246 227.302,27.882 222.663,27.882C215.015,27.882 215.516,21.363 211.379,21.363" style="fill:white;fill-rule:nonzero;"/>
        </g>
        <g transform="matrix(4.16667,0,0,4.16667,0,70.0058)">
            <path d="M269.549,37.409C259.394,39.415 252.624,42.425 252.624,49.32C252.624,53.959 255.758,56.09 259.519,56.09C263.281,56.09 266.54,54.586 269.549,52.455L269.549,37.409ZM249.74,67.625C239.459,67.625 232.814,61.858 232.814,53.332C232.814,38.413 251.62,33.397 269.549,30.138L269.549,24.245C269.549,16.472 268.421,13.715 262.904,13.715C258.14,13.715 255.507,16.221 253.626,22.114C251.873,27.379 248.361,29.636 243.849,29.636C239.71,29.636 236.701,27.129 236.701,21.863C236.701,12.585 248.486,6.318 264.91,6.318C277.698,6.318 288.857,11.082 288.857,25.123L288.857,54.084C288.857,57.469 290.111,58.849 292.242,58.849C293.12,58.849 294.373,58.723 295.878,57.971L295.878,64.365C292.367,66.497 288.606,67.499 282.964,67.499C276.445,67.499 271.305,65.619 269.926,59.726C264.66,63.738 257.513,67.625 249.74,67.625" style="fill:white;fill-rule:nonzero;"/>
        </g>
    </g>
</svg>
