<svg width="47" height="44" viewBox="0 0 47 44" fill="none" xmlns="http://www.w3.org/2000/svg">
<path d="M44.5652 0.549626C44.9689 0.253585 45.4982 0.181818 45.9736 0.379178C46.5119 0.603452 46.8618 1.12377 46.8618 1.70688V19.1195C46.8618 30.5485 37.8191 39.8693 26.5426 40.4434L25.4481 40.4703C17.4371 40.4703 10.7627 34.4957 9.74001 26.7448C6.15164 29.6424 3.86405 34.0651 3.86405 39.035V41.9057C3.86405 42.6951 3.21814 43.341 2.4287 43.341C1.63925 43.341 0.984375 42.6772 0.984375 41.8877V39.017C0.984375 32.3875 4.44716 26.5654 9.65927 23.2551C10.377 15.1992 17.141 8.87466 25.3853 8.87466C30.7769 8.87466 35.5225 6.8562 38.9673 4.77494C40.6808 3.74328 42.0533 2.70265 42.9863 1.93115C43.4528 1.5454 43.8116 1.22245 44.0539 1.00714C44.1705 0.899493 44.2602 0.809783 44.323 0.755958L44.3948 0.68419L44.5562 0.540655L44.5652 0.549626ZM43.9911 4.81979C43.0491 5.54644 41.856 6.39868 40.4565 7.24195C36.9848 9.33218 32.1405 11.4673 26.5246 11.7274L25.3943 11.7543L24.7305 11.7723C18.9263 12.0683 14.1358 16.186 12.826 21.6583C14.9432 20.824 17.2397 20.3664 19.6529 20.3664H28.265C29.0544 20.3664 29.7004 21.0123 29.7004 21.8018C29.7004 22.5912 29.0544 23.2371 28.265 23.2371H19.6529C17.0693 23.2371 14.6381 23.8561 12.4851 24.9596C12.6376 31.9569 18.4059 37.5906 25.4481 37.5906L26.399 37.5727C36.1684 37.0793 44 28.9965 44 19.1195V4.82877L43.9911 4.81979Z" fill="white"/>
</svg>
