<svg width="30" height="18" viewBox="0 0 30 18" fill="none" xmlns="http://www.w3.org/2000/svg">
<rect x="0.420455" y="0.69316" width="29.1591" height="16.1591" rx="1.26136" fill="white" stroke="#E8EAEB" stroke-width="0.840909"/>
<path d="M11.2109 12.9098L12.5515 5.26172H14.6973L13.3553 12.9098H11.2109Z" fill="#0058A0"/>
<path d="M21.1372 5.45082C20.5209 5.2342 19.8699 5.12557 19.2146 5.13001C17.0944 5.13001 15.5955 6.16714 15.5879 7.65399C15.5759 8.75264 16.6541 9.36496 17.4684 9.73117C18.2827 10.0974 18.5842 10.345 18.5797 10.6789C18.5797 11.1917 17.9132 11.426 17.2965 11.426C16.6 11.446 15.9083 11.3086 15.2758 11.0247L14.9998 10.9031L14.6982 12.6155C15.2004 12.8279 16.1263 13.014 17.0884 13.0227C19.3503 13.0227 20.8085 11.9973 20.8251 10.4109C20.8341 9.54074 20.2611 8.87862 19.0246 8.33222C18.2706 7.97919 17.8182 7.74627 17.8182 7.38445C17.8182 7.06657 18.2073 6.72672 19.0472 6.72672C19.5977 6.7149 20.1446 6.81468 20.6532 7.0197L20.8447 7.10759L21.1357 5.45082" fill="#0058A0"/>
<path d="M26.6404 5.26782H24.9816C24.4689 5.26782 24.0768 5.40406 23.8582 5.90211L20.6719 12.9101H22.9248C22.9248 12.9101 23.2927 11.9681 23.3771 11.7616H26.1246C26.1895 12.0297 26.3855 12.9071 26.3855 12.9071H28.376L26.6404 5.26782ZM23.9939 10.1971C24.1718 9.75765 24.8489 8.05987 24.8489 8.05987C24.8489 8.05987 25.0253 7.6204 25.1339 7.32743L25.2847 7.98662L25.7808 10.1942L23.9939 10.1971Z" fill="#0058A0"/>
<path d="M9.41162 5.26782L7.31104 10.4828L7.08635 9.42366C6.69579 8.19757 5.47435 6.87918 4.11719 6.21559L6.03832 12.9027H8.30629L11.6841 5.26782H9.41162Z" fill="#0058A0"/>
<path d="M5.36139 5.26758H1.90214L1.875 5.42725C4.56972 6.05568 6.3476 7.585 7.08649 9.42342L6.33252 5.90773C6.20283 5.42286 5.82584 5.2793 5.35989 5.26172" fill="#FAA61A"/>
</svg>
