<svg width="33" height="32" viewBox="0 0 33 32" fill="none" xmlns="http://www.w3.org/2000/svg">
<ellipse cx="16.417" cy="16" rx="16.2198" ry="16" fill="white"/>
<g clip-path="url(#clip0_702_3074)">
<path d="M24.3237 12.8C24.1209 11.5 23.5127 10.6 22.0935 10.4C19.8632 10 16.4165 10 16.4165 10C16.4165 10 12.9698 10 10.7396 10.4C9.32038 10.6 8.61076 11.5 8.50939 12.8C8.30664 14.1 8.30664 16 8.30664 16C8.30664 16 8.30664 17.9 8.50939 19.2C8.71214 20.5 9.32038 21.4 10.7396 21.6C12.9698 22 16.4165 22 16.4165 22C16.4165 22 19.8632 22 22.0935 21.6C23.5127 21.3 24.1209 20.5 24.3237 19.2C24.5264 17.9 24.5264 16 24.5264 16C24.5264 16 24.5264 14.1 24.3237 12.8ZM14.3891 19V13L19.4577 16L14.3891 19Z" fill="#171717"/>
</g>
<defs>
<clipPath id="clip0_702_3074">
<rect width="16.2198" height="16" fill="white" transform="translate(8.30664 8)"/>
</clipPath>
</defs>
</svg>
