<svg width="30" height="18" viewBox="0 0 30 18" fill="none" xmlns="http://www.w3.org/2000/svg">
<rect x="0.420455" y="0.69316" width="29.1591" height="16.1591" rx="1.26136" fill="white" stroke="#E8EAEB" stroke-width="0.840909"/>
<g clip-path="url(#clip0_2109_1586)">
<path d="M22.3413 1.65027H7.69531V15.9303H22.3413V11.2179C22.3983 11.1363 22.4283 11.0314 22.4283 10.9031C22.4283 10.7574 22.3983 10.6671 22.3413 10.5913" fill="url(#paint0_radial_2109_1586)"/>
<path d="M9.01531 7.82857L8.73331 7.1612L8.45431 7.82857H9.01531ZM15.2223 7.56337C15.1653 7.59542 15.0993 7.59834 15.0183 7.59834H14.5203V7.22531H15.0273C15.0993 7.22531 15.1743 7.22822 15.2223 7.25445C15.2763 7.27777 15.3093 7.33022 15.3093 7.40308C15.3093 7.47594 15.2763 7.53714 15.2223 7.56337ZM18.7923 7.82857L18.5073 7.1612L18.2253 7.82857H18.7923ZM12.1413 8.55131H11.7183L11.7153 7.23988L11.1183 8.55131H10.7583L10.1583 7.23988V8.55131H9.32131L9.16231 8.17828H8.30731L8.14831 8.55131H7.70131L8.43631 6.87851H9.04831L9.75031 8.46097V6.87851H10.4223L10.9623 8.01217L11.4573 6.87851H12.1413V8.55131ZM13.8213 8.55131H12.4473V6.87851H13.8213V7.22822H12.8583V7.5284H13.8003V7.86937H12.8613V8.20451H13.8243V8.55131H13.8213ZM15.7623 7.32731C15.7623 7.59542 15.5793 7.7324 15.4713 7.7732C15.5613 7.80525 15.6393 7.86645 15.6753 7.91308C15.7323 7.9976 15.7443 8.07045 15.7443 8.21908V8.5484H15.3303L15.3273 8.33857C15.3273 8.23657 15.3363 8.09377 15.2613 8.01217C15.2013 7.95388 15.1083 7.93931 14.9613 7.93931H14.5203V8.5484H14.1093V6.87851H15.0573C15.2673 6.87851 15.4233 6.88434 15.5553 6.9572C15.6843 7.03297 15.7623 7.1408 15.7623 7.32731ZM16.4193 8.55131H15.9993V6.87851H16.4193V8.55131ZM21.2943 8.55131H20.7123L19.9323 7.29525V8.55131H19.0953L18.9363 8.17828H18.0813L17.9253 8.55131H17.4423C17.2413 8.55131 16.9893 8.5076 16.8453 8.36771C16.7013 8.22491 16.6263 8.03257 16.6263 7.72948C16.6263 7.48177 16.6713 7.25445 16.8483 7.07668C16.9803 6.94262 17.1903 6.88142 17.4723 6.88142H17.8713V7.23988H17.4813C17.3313 7.23988 17.2473 7.26028 17.1633 7.33897C17.0943 7.40891 17.0463 7.54297 17.0463 7.71783C17.0463 7.89851 17.0823 8.02674 17.1603 8.11125C17.2233 8.17828 17.3403 8.19868 17.4483 8.19868H17.6343L18.2133 6.88434H18.8313L19.5273 8.4668V6.87851H20.1543L20.8773 8.04423V6.87851H21.3003L21.2943 8.55131ZM7.69531 8.87771H8.39731L8.55631 8.50468H8.91031L9.06931 8.87771H10.4523V8.59503L10.5753 8.88063H11.2923L11.4153 8.59211V8.88063H14.8533L14.8503 8.27154H14.9163C14.9643 8.27445 14.9763 8.27737 14.9763 8.35314V8.88354H16.7553V8.74074C16.8993 8.81651 17.1213 8.88354 17.4153 8.88354H18.1623L18.3213 8.51051H18.6753L18.8313 8.88354H20.2743V8.53091L20.4933 8.88354H21.6603V6.54919H20.5173V6.82605L20.3583 6.54919H19.1853V6.82605L19.0383 6.54919H17.4543C17.1903 6.54919 16.9563 6.58417 16.7673 6.68617V6.54919H15.6723V6.68617C15.5523 6.58417 15.3903 6.54919 15.2073 6.54919H11.2083L10.9413 7.15245L10.6653 6.54919H9.40531V6.82605L9.26731 6.54919H8.19331L7.69531 7.65371V8.87771Z" fill="white"/>
<path d="M22.3414 10.1133H21.5914C21.5164 10.1133 21.4654 10.1162 21.4234 10.1425C21.3814 10.1687 21.3634 10.2095 21.3634 10.2619C21.3634 10.3261 21.3994 10.3669 21.4534 10.3873C21.4954 10.4018 21.5434 10.4077 21.6124 10.4077L21.8344 10.4135C22.0594 10.4193 22.2094 10.4572 22.3024 10.5475C22.3204 10.5592 22.3294 10.5738 22.3414 10.5883V10.1133ZM22.3414 11.2178C22.2424 11.3606 22.0474 11.4306 21.7834 11.4306H20.9884V11.0721H21.7804C21.8584 11.0721 21.9154 11.0634 21.9484 11.0313C21.9784 11.0051 21.9964 10.9672 21.9964 10.9235C21.9964 10.8739 21.9754 10.8361 21.9454 10.8127C21.9154 10.7865 21.8734 10.7749 21.8014 10.7749C21.4144 10.7632 20.9314 10.7865 20.9314 10.2561C20.9314 10.0142 21.0904 9.75777 21.5224 9.75777H22.3414V9.42554H21.5794C21.3484 9.42554 21.1834 9.47799 21.0634 9.56251V9.42554H19.9354C19.7554 9.42554 19.5424 9.46925 19.4434 9.56251V9.42554H17.4304V9.56251C17.2714 9.44885 17.0014 9.42554 16.8754 9.42554H15.5494V9.56251C15.4234 9.44302 15.1414 9.42554 14.9704 9.42554H13.4854L13.1464 9.78399L12.8284 9.42554H10.6084V11.7599H12.7864L13.1374 11.3956L13.4674 11.7599H14.8084V11.212H14.9404C15.1174 11.2149 15.3274 11.2091 15.5134 11.1304V11.7599H16.6204V11.1508H16.6744C16.7434 11.1508 16.7494 11.1537 16.7494 11.2207V11.7599H20.1124C20.3254 11.7599 20.5504 11.7074 20.6734 11.6113V11.7599H21.7414C21.9634 11.7599 22.1794 11.7307 22.3444 11.6521V11.2178H22.3414ZM20.7004 10.5475C20.7814 10.6291 20.8234 10.7311 20.8234 10.9031C20.8234 11.2645 20.5924 11.4306 20.1754 11.4306H19.3744V11.0721H20.1724C20.2504 11.0721 20.3044 11.0634 20.3404 11.0313C20.3674 11.0051 20.3884 10.9672 20.3884 10.9235C20.3884 10.8739 20.3674 10.8361 20.3374 10.8127C20.3074 10.7865 20.2624 10.7749 20.1904 10.7749C19.8064 10.7632 19.3234 10.7865 19.3234 10.2561C19.3234 10.0142 19.4794 9.75777 19.9114 9.75777H20.7364V10.1133H19.9804C19.9054 10.1133 19.8574 10.1162 19.8154 10.1425C19.7704 10.1687 19.7524 10.2095 19.7524 10.2619C19.7524 10.3261 19.7914 10.3669 19.8424 10.3873C19.8844 10.4018 19.9324 10.4077 20.0014 10.4077L20.2234 10.4135C20.4544 10.4193 20.6074 10.4572 20.7004 10.5475ZM16.9864 10.4455C16.9324 10.4776 16.8634 10.4805 16.7824 10.4805H16.2814V10.1046H16.7884C16.8604 10.1046 16.9354 10.1075 16.9834 10.1337C17.0374 10.1599 17.0674 10.2124 17.0674 10.2853C17.0704 10.3552 17.0374 10.4135 16.9864 10.4455ZM17.2354 10.6525C17.3284 10.6845 17.4034 10.7428 17.4364 10.7923C17.4934 10.8739 17.5024 10.9497 17.5054 11.0983V11.4306H17.0914V11.2207C17.0914 11.1187 17.1004 10.9701 17.0254 10.8943C16.9654 10.8331 16.8724 10.8215 16.7224 10.8215H16.2814V11.4335H15.8674V9.76068H16.8184C17.0254 9.76068 17.1784 9.76942 17.3134 9.83937C17.4424 9.91514 17.5264 10.0201 17.5264 10.2124C17.5264 10.4747 17.3434 10.6117 17.2354 10.6525ZM17.7544 9.75777H19.1284V10.1046H18.1654V10.4077H19.1074V10.7486H18.1654V11.0809L19.1284 11.0838V11.4306H17.7544V9.75777ZM14.9764 10.5301H14.4454V10.1046H14.9824C15.1324 10.1046 15.2344 10.1629 15.2344 10.3086C15.2344 10.4543 15.1354 10.5301 14.9764 10.5301ZM14.0344 11.279L13.4014 10.5971L14.0344 9.93845V11.279ZM12.4024 11.0809H11.3914V10.7486H12.2944V10.4077H11.3914V10.1046H12.4234L12.8734 10.5913L12.4024 11.0809ZM15.6754 10.3086C15.6754 10.7749 15.3184 10.8681 14.9584 10.8681H14.4454V11.4306H13.6444L13.1374 10.8769L12.6094 11.4306H10.9804V9.75777H12.6364L13.1434 10.3057L13.6684 9.75777H14.9824C15.3094 9.75777 15.6754 9.84519 15.6754 10.3086Z" fill="white"/>
</g>
<defs>
<radialGradient id="paint0_radial_2109_1586" cx="0" cy="0" r="1" gradientUnits="userSpaceOnUse" gradientTransform="translate(10.2798 4.14338) scale(13.7448 13.3521)">
<stop stop-color="#9DD5F6"/>
<stop offset="0.0711" stop-color="#98D3F5"/>
<stop offset="0.1575" stop-color="#89CEF3"/>
<stop offset="0.2516" stop-color="#70C6EF"/>
<stop offset="0.3514" stop-color="#4EBBEA"/>
<stop offset="0.4546" stop-color="#23ADE3"/>
<stop offset="0.5" stop-color="#0DA6E0"/>
<stop offset="1" stop-color="#2E77BC"/>
</radialGradient>
<clipPath id="clip0_2109_1586">
<rect width="15" height="14.5714" fill="white" transform="translate(7.5 1.48706)"/>
</clipPath>
</defs>
</svg>
