<svg width="96" height="18" viewBox="0 0 96 18" fill="none" xmlns="http://www.w3.org/2000/svg">
<g clip-path="url(#clip0_702_864)">
<path d="M15.1441 5.43893L10.8271 4.81093L8.90008 0.899935C8.80851 0.7424 8.67719 0.61166 8.51925 0.520784C8.36132 0.429908 8.18229 0.38208 8.00008 0.38208C7.81786 0.38208 7.63884 0.429908 7.4809 0.520784C7.32297 0.61166 7.19165 0.7424 7.10008 0.899935L5.17308 4.81193L0.856079 5.43893C0.671214 5.46545 0.497468 5.5432 0.354521 5.66338C0.211573 5.78356 0.105137 5.94137 0.0472671 6.11894C-0.0106025 6.2965 -0.0175924 6.48672 0.0270889 6.66806C0.0717703 6.84939 0.166337 7.01459 0.300079 7.14493L3.42308 10.1899L2.68608 14.4899C2.65457 14.6738 2.67514 14.8629 2.74546 15.0357C2.81578 15.2085 2.93305 15.3582 3.08401 15.4679C3.23497 15.5775 3.41359 15.6428 3.59969 15.6562C3.78579 15.6697 3.97193 15.6308 4.13708 15.5439L8.00008 13.5129L11.8611 15.5419C12.0262 15.6288 12.2124 15.6677 12.3985 15.6542C12.5846 15.6408 12.7632 15.5755 12.9142 15.4659C13.0651 15.3562 13.1824 15.2065 13.2527 15.0337C13.323 14.8609 13.3436 14.6718 13.3121 14.4879L12.5751 10.1879L15.7001 7.14493C15.8335 7.01468 15.9278 6.84971 15.9724 6.66868C16.017 6.48764 16.0102 6.29773 15.9525 6.1204C15.8949 5.94307 15.7889 5.78539 15.6464 5.66514C15.5039 5.5449 15.3306 5.4669 15.1461 5.43993L15.1441 5.43893Z" fill="#EC5025"/>
</g>
<g clip-path="url(#clip1_702_864)">
<path d="M35.1441 5.43893L30.8271 4.81093L28.9001 0.899935C28.8085 0.7424 28.6772 0.61166 28.5193 0.520784C28.3613 0.429908 28.1823 0.38208 28.0001 0.38208C27.8179 0.38208 27.6388 0.429908 27.4809 0.520784C27.323 0.61166 27.1916 0.7424 27.1001 0.899935L25.1731 4.81193L20.8561 5.43893C20.6712 5.46545 20.4975 5.5432 20.3545 5.66338C20.2116 5.78356 20.1051 5.94137 20.0473 6.11894C19.9894 6.2965 19.9824 6.48672 20.0271 6.66806C20.0718 6.84939 20.1663 7.01459 20.3001 7.14493L23.4231 10.1899L22.6861 14.4899C22.6546 14.6738 22.6751 14.8629 22.7455 15.0357C22.8158 15.2085 22.933 15.3582 23.084 15.4679C23.235 15.5775 23.4136 15.6428 23.5997 15.6562C23.7858 15.6697 23.9719 15.6308 24.1371 15.5439L28.0001 13.5129L31.8611 15.5419C32.0262 15.6288 32.2124 15.6677 32.3985 15.6542C32.5846 15.6408 32.7632 15.5755 32.9142 15.4659C33.0651 15.3562 33.1824 15.2065 33.2527 15.0337C33.323 14.8609 33.3436 14.6718 33.3121 14.4879L32.5751 10.1879L35.7001 7.14493C35.8335 7.01468 35.9278 6.84971 35.9724 6.66868C36.017 6.48764 36.0102 6.29773 35.9525 6.1204C35.8949 5.94307 35.7889 5.78539 35.6464 5.66514C35.5039 5.5449 35.3306 5.4669 35.1461 5.43993L35.1441 5.43893Z" fill="#EC5025"/>
</g>
<g clip-path="url(#clip2_702_864)">
<path d="M55.1441 5.43893L50.8271 4.81093L48.9001 0.899935C48.8085 0.7424 48.6772 0.61166 48.5193 0.520784C48.3613 0.429908 48.1823 0.38208 48.0001 0.38208C47.8179 0.38208 47.6388 0.429908 47.4809 0.520784C47.323 0.61166 47.1916 0.7424 47.1001 0.899935L45.1731 4.81193L40.8561 5.43893C40.6712 5.46545 40.4975 5.5432 40.3545 5.66338C40.2116 5.78356 40.1051 5.94137 40.0473 6.11894C39.9894 6.2965 39.9824 6.48672 40.0271 6.66806C40.0718 6.84939 40.1663 7.01459 40.3001 7.14493L43.4231 10.1899L42.6861 14.4899C42.6546 14.6738 42.6751 14.8629 42.7455 15.0357C42.8158 15.2085 42.933 15.3582 43.084 15.4679C43.235 15.5775 43.4136 15.6428 43.5997 15.6562C43.7858 15.6697 43.9719 15.6308 44.1371 15.5439L48.0001 13.5129L51.8611 15.5419C52.0262 15.6288 52.2124 15.6677 52.3985 15.6542C52.5846 15.6408 52.7632 15.5755 52.9142 15.4659C53.0651 15.3562 53.1824 15.2065 53.2527 15.0337C53.323 14.8609 53.3436 14.6718 53.3121 14.4879L52.5751 10.1879L55.7001 7.14493C55.8335 7.01468 55.9278 6.84971 55.9724 6.66868C56.017 6.48764 56.0102 6.29773 55.9525 6.1204C55.8949 5.94307 55.7889 5.78539 55.6464 5.66514C55.5039 5.5449 55.3306 5.4669 55.1461 5.43993L55.1441 5.43893Z" fill="#EC5025"/>
</g>
<g clip-path="url(#clip3_702_864)">
<path d="M75.1441 5.43893L70.8271 4.81093L68.9001 0.899935C68.8085 0.7424 68.6772 0.61166 68.5193 0.520784C68.3613 0.429908 68.1823 0.38208 68.0001 0.38208C67.8179 0.38208 67.6388 0.429908 67.4809 0.520784C67.323 0.61166 67.1916 0.7424 67.1001 0.899935L65.1731 4.81193L60.8561 5.43893C60.6712 5.46545 60.4975 5.5432 60.3545 5.66338C60.2116 5.78356 60.1051 5.94137 60.0473 6.11894C59.9894 6.2965 59.9824 6.48672 60.0271 6.66806C60.0718 6.84939 60.1663 7.01459 60.3001 7.14493L63.4231 10.1899L62.6861 14.4899C62.6546 14.6738 62.6751 14.8629 62.7455 15.0357C62.8158 15.2085 62.933 15.3582 63.084 15.4679C63.235 15.5775 63.4136 15.6428 63.5997 15.6562C63.7858 15.6697 63.9719 15.6308 64.1371 15.5439L68.0001 13.5129L71.8611 15.5419C72.0262 15.6288 72.2124 15.6677 72.3985 15.6542C72.5846 15.6408 72.7632 15.5755 72.9142 15.4659C73.0651 15.3562 73.1824 15.2065 73.2527 15.0337C73.323 14.8609 73.3436 14.6718 73.3121 14.4879L72.5751 10.1879L75.7001 7.14493C75.8335 7.01468 75.9278 6.84971 75.9724 6.66868C76.017 6.48764 76.0102 6.29773 75.9525 6.1204C75.8949 5.94307 75.7889 5.78539 75.6464 5.66514C75.5039 5.5449 75.3306 5.4669 75.1461 5.43993L75.1441 5.43893Z" fill="#EC5025"/>
</g>
<g clip-path="url(#clip4_702_864)">
<path d="M95.1441 5.43893L90.8271 4.81093L88.9001 0.899935C88.8085 0.7424 88.6772 0.61166 88.5193 0.520784C88.3613 0.429908 88.1823 0.38208 88.0001 0.38208C87.8179 0.38208 87.6388 0.429908 87.4809 0.520784C87.323 0.61166 87.1916 0.7424 87.1001 0.899935L85.1731 4.81193L80.8561 5.43893C80.6712 5.46545 80.4975 5.5432 80.3545 5.66338C80.2116 5.78356 80.1051 5.94137 80.0473 6.11894C79.9894 6.2965 79.9824 6.48672 80.0271 6.66806C80.0718 6.84939 80.1663 7.01459 80.3001 7.14493L83.4231 10.1899L82.6861 14.4899C82.6546 14.6738 82.6751 14.8629 82.7455 15.0357C82.8158 15.2085 82.933 15.3582 83.084 15.4679C83.235 15.5775 83.4136 15.6428 83.5997 15.6562C83.7858 15.6697 83.9719 15.6308 84.1371 15.5439L88.0001 13.5129L91.8611 15.5419C92.0262 15.6288 92.2124 15.6677 92.3985 15.6542C92.5846 15.6408 92.7632 15.5755 92.9142 15.4659C93.0651 15.3562 93.1824 15.2065 93.2527 15.0337C93.323 14.8609 93.3436 14.6718 93.3121 14.4879L92.5751 10.1879L95.7001 7.14493C95.8335 7.01468 95.9278 6.84971 95.9724 6.66868C96.017 6.48764 96.0102 6.29773 95.9525 6.1204C95.8949 5.94307 95.7889 5.78539 95.6464 5.66514C95.5039 5.5449 95.3306 5.4669 95.1461 5.43993L95.1441 5.43893Z" fill="#EC5025"/>
</g>
<defs>
<clipPath id="clip0_702_864">
<rect width="16" height="16" fill="white"/>
</clipPath>
<clipPath id="clip1_702_864">
<rect width="16" height="16" fill="white" transform="translate(20)"/>
</clipPath>
<clipPath id="clip2_702_864">
<rect width="16" height="16" fill="white" transform="translate(40)"/>
</clipPath>
<clipPath id="clip3_702_864">
<rect width="16" height="16" fill="white" transform="translate(60)"/>
</clipPath>
<clipPath id="clip4_702_864">
<rect width="16" height="16" fill="white" transform="translate(80)"/>
</clipPath>
</defs>
</svg>
