<svg width="24" height="24" viewBox="0 0 24 24" fill="none" xmlns="http://www.w3.org/2000/svg">
<g clip-path="url(#clip0_713_4315)">
<path d="M12.7075 23.012C18.8412 23.012 23.8135 18.0397 23.8135 11.906C23.8135 5.77236 18.8412 0.800049 12.7075 0.800049C6.57387 0.800049 1.60156 5.77236 1.60156 11.906C1.60156 18.0397 6.57387 23.012 12.7075 23.012Z" stroke="#00A7D1" stroke-width="0.493598"/>
<path d="M16.6589 5.98275C15.5589 5.15775 14.2508 4.65536 12.8814 4.53187C11.5119 4.40839 10.1352 4.66869 8.90532 5.28362C7.67547 5.89854 6.64116 6.84378 5.91828 8.01343C5.19539 9.18308 4.8125 10.5309 4.8125 11.9059C4.8125 13.2809 5.19539 14.6288 5.91828 15.7984C6.64116 16.9681 7.67547 17.9133 8.90532 18.5282C10.1352 19.1432 11.5119 19.4035 12.8814 19.28C14.2508 19.1565 15.5589 18.6541 16.6589 17.8291C15.881 17.8291 15.1108 17.6759 14.3922 17.3782C13.6735 17.0806 13.0206 16.6443 12.4705 16.0942C11.9205 15.5442 11.4842 14.8913 11.1866 14.1726C10.8889 13.454 10.7357 12.6838 10.7357 11.9059C10.7357 11.1281 10.8889 10.3579 11.1866 9.63923C11.4842 8.92059 11.9205 8.26763 12.4705 7.71761C13.0206 7.16759 13.6735 6.73129 14.3922 6.43363C15.1108 6.13596 15.881 5.98275 16.6589 5.98275Z" fill="#00A7D1"/>
<path d="M12.9317 13.1031C12.9317 13.032 12.9376 12.9565 12.9494 12.8765C12.9642 12.7936 12.985 12.7062 13.0116 12.6144C13.0412 12.5196 13.0768 12.4204 13.1182 12.3168L13.4381 12.4412C13.4085 12.5241 13.3818 12.6026 13.3581 12.6766C13.3374 12.7506 13.3211 12.8202 13.3093 12.8854C13.3004 12.9506 13.2959 13.0127 13.2959 13.072C13.2959 13.2141 13.3329 13.337 13.407 13.4407C13.484 13.5444 13.5891 13.6243 13.7224 13.6806C13.8557 13.7369 14.0112 13.765 14.1888 13.765C14.405 13.765 14.5827 13.7339 14.7219 13.6717C14.8641 13.6095 14.9737 13.5147 15.0507 13.3874C15.1306 13.26 15.1839 13.0986 15.2106 12.9032C15.2372 12.7047 15.2461 12.4723 15.2372 12.2057L15.1528 9.92677H15.5216L15.5971 12.299C15.603 12.4974 15.5941 12.6885 15.5704 12.8721C15.5497 13.0527 15.5082 13.2186 15.446 13.3696C15.3838 13.5236 15.298 13.6569 15.1884 13.7694C15.0788 13.8849 14.9411 13.9738 14.7752 14.036C14.6094 14.0982 14.4095 14.1293 14.1755 14.1293C14.0186 14.1293 13.866 14.1085 13.718 14.0671C13.5699 14.0256 13.4366 13.9634 13.3181 13.8805C13.1997 13.7976 13.1049 13.691 13.0338 13.5606C12.9657 13.4333 12.9317 13.2808 12.9317 13.1031ZM18.5482 13.1208C18.3705 13.1208 18.2239 13.106 18.1084 13.0764C17.9959 13.0468 17.907 13.0009 17.8419 12.9387C17.7797 12.8765 17.7353 12.798 17.7086 12.7033C17.6849 12.6055 17.6701 12.49 17.6642 12.3568L17.5753 9.92677H17.9396L18.0285 12.2146C18.0344 12.3597 18.0477 12.4723 18.0684 12.5522C18.0921 12.6292 18.1425 12.6825 18.2195 12.7121C18.2994 12.7418 18.4238 12.7566 18.5926 12.7566C18.6548 12.7566 18.6993 12.7743 18.7259 12.8099C18.7555 12.8425 18.7703 12.8824 18.7703 12.9298C18.7703 12.9772 18.7496 13.0216 18.7081 13.0631C18.6667 13.1016 18.6134 13.1208 18.5482 13.1208ZM16.518 13.1208C16.4381 13.1208 16.3566 13.1134 16.2737 13.0986C16.1938 13.0868 16.1375 13.0779 16.1049 13.072L16.1538 12.721C16.3581 12.7477 16.5506 12.7521 16.7313 12.7344C16.9119 12.7166 17.0689 12.6662 17.2022 12.5833C17.3384 12.4974 17.445 12.3686 17.522 12.1968C17.599 12.0251 17.6375 11.8015 17.6375 11.526L17.8508 12.0591C17.8152 12.2457 17.7619 12.4027 17.6908 12.53C17.6198 12.6544 17.5368 12.7566 17.4421 12.8365C17.3503 12.9135 17.251 12.9728 17.1444 13.0142C17.0378 13.0557 16.9312 13.0838 16.8246 13.0986C16.718 13.1134 16.6158 13.1208 16.518 13.1208ZM17.482 12.5122C17.4347 12.4204 17.368 12.3138 17.2821 12.1924C17.1962 12.068 17.0926 11.9332 16.9712 11.7881C16.8497 11.643 16.712 11.492 16.558 11.335C16.407 11.178 16.2426 11.0196 16.0649 10.8597L16.3048 10.6065C16.5003 10.793 16.6735 10.9678 16.8246 11.1307C16.9786 11.2906 17.1133 11.4416 17.2288 11.5838C17.3443 11.723 17.4435 11.8503 17.5265 11.9658C17.6094 12.0813 17.679 12.1865 17.7353 12.2812L17.482 12.5122ZM18.5466 13.1208L18.5866 12.7566C18.7406 12.7566 18.8916 12.7447 19.0397 12.721C19.1878 12.6973 19.3329 12.6633 19.475 12.6189C19.6172 12.5744 19.7534 12.5211 19.8837 12.4589C20.017 12.3938 20.1429 12.3197 20.2613 12.2368C20.1843 12.1687 20.0955 12.1095 19.9948 12.0591C19.8941 12.0088 19.783 11.9703 19.6616 11.9436C19.5432 11.914 19.4173 11.8992 19.284 11.8992C19.2366 11.8992 19.1922 11.9007 19.1507 11.9036C19.1093 11.9066 19.0678 11.9125 19.0264 11.9214C18.9849 11.9273 18.9375 11.9362 18.8842 11.9481L18.8131 11.6104C18.8931 11.5867 18.9731 11.569 19.053 11.5571C19.133 11.5423 19.21 11.5349 19.284 11.5349C19.438 11.5349 19.5772 11.5542 19.7016 11.5927C19.826 11.6282 19.9385 11.6726 20.0392 11.7259C20.1429 11.7792 20.2391 11.8326 20.328 11.8859C20.4198 11.9392 20.5086 11.9851 20.5945 12.0236C20.6804 12.0591 20.7693 12.0769 20.8611 12.0769H20.9544L20.9855 12.3967C20.8581 12.3967 20.7411 12.4145 20.6345 12.45C20.5279 12.4856 20.4227 12.5315 20.3191 12.5878C20.2184 12.6411 20.1118 12.6988 19.9992 12.761C19.8867 12.8202 19.7623 12.878 19.6261 12.9343C19.4898 12.9876 19.3329 13.032 19.1552 13.0675C18.9805 13.1031 18.7776 13.1208 18.5466 13.1208Z" fill="#00A7D1"/>
</g>
<defs>
<clipPath id="clip0_713_4315">
<rect width="24" height="24" fill="white"/>
</clipPath>
</defs>
</svg>
