<svg width="33" height="32" viewBox="0 0 33 32" fill="none" xmlns="http://www.w3.org/2000/svg">
<ellipse cx="16.3194" cy="16" rx="16.2198" ry="16" fill="white"/>
<g clip-path="url(#clip0_702_3068)">
<path d="M16.3193 8C18.5216 8 18.7975 8.00886 19.6641 8.04785C20.3362 8.06133 21.0013 8.18719 21.6309 8.41992C22.1722 8.62047 22.6626 8.93541 23.0674 9.34277C23.4803 9.74202 23.7996 10.2258 24.0029 10.7598C24.2393 11.38 24.3673 12.0358 24.3818 12.6982C24.4214 13.5531 24.4307 13.8232 24.4307 15.998C24.4307 18.1729 24.4214 18.445 24.3818 19.2979C24.3684 19.9616 24.241 20.6186 24.0049 21.2402C23.7963 21.7715 23.4777 22.2544 23.0693 22.6572C22.6609 23.0601 22.1715 23.3744 21.6328 23.5801C21.0027 23.813 20.3369 23.9389 19.6641 23.9521C18.7975 23.9911 18.5216 24 16.3193 24C14.1165 24 13.8403 23.9911 12.9756 23.9521C12.3028 23.9389 11.637 23.813 11.0068 23.5801C10.4655 23.3795 9.97509 23.0646 9.57031 22.6572C9.15737 22.258 8.83808 21.7742 8.63477 21.2402C8.39883 20.6192 8.27148 19.9628 8.25781 19.2998C8.21828 18.445 8.20898 18.1728 8.20898 16C8.20898 13.8272 8.21828 13.555 8.25781 12.7002C8.27148 12.0372 8.39883 11.3808 8.63477 10.7598C8.83808 10.2258 9.15737 9.74203 9.57031 9.34277C9.97509 8.93541 10.4655 8.62047 11.0068 8.41992C11.6364 8.18719 12.3015 8.06134 12.9736 8.04785C13.8403 8.00886 14.1166 8 16.3193 8ZM16.3213 9.43945C14.1594 9.43945 13.8992 9.44834 13.0439 9.48633C12.5298 9.49242 12.0201 9.5852 11.5381 9.76172C11.1855 9.8902 10.8668 10.0958 10.6055 10.3623C10.3354 10.6201 10.1273 10.9345 9.99707 11.2822C9.81821 11.7575 9.724 12.2597 9.71777 12.7666C9.67925 13.6106 9.66992 13.867 9.66992 16C9.66992 18.133 9.67925 18.3894 9.71777 19.2334C9.724 19.7403 9.81821 20.2425 9.99707 20.7178C10.1273 21.0655 10.3354 21.3799 10.6055 21.6377C10.8668 21.9042 11.1855 22.1098 11.5381 22.2383C12.0201 22.4148 12.5298 22.5076 13.0439 22.5137C13.8992 22.5517 14.1594 22.5605 16.3213 22.5605C18.4832 22.5605 18.7431 22.5517 19.5986 22.5137C20.1126 22.5075 20.6217 22.4147 21.1035 22.2383C21.4534 22.1055 21.7711 21.9011 22.0361 21.6396C22.3012 21.3782 22.508 21.0648 22.6426 20.7197C22.8214 20.2444 22.9157 19.7423 22.9219 19.2354C22.9604 18.3914 22.9697 18.135 22.9697 16.002C22.9697 13.869 22.9604 13.6125 22.9219 12.7686C22.9156 12.2616 22.8215 11.7595 22.6426 11.2842C22.5123 10.9364 22.3043 10.622 22.0342 10.3643C21.7728 10.0978 21.4541 9.89215 21.1016 9.76367C20.6197 9.58723 20.1106 9.49442 19.5967 9.48828C18.7411 9.45028 18.4843 9.44141 16.3193 9.44141L16.3213 9.43945ZM16.3184 11.8916C16.8652 11.8916 17.4069 11.9987 17.9121 12.2051C18.4173 12.4115 18.877 12.7133 19.2637 13.0947C19.6503 13.4761 19.9567 13.9294 20.166 14.4277C20.3753 14.9261 20.4834 15.4605 20.4834 16C20.4834 16.8125 20.2388 17.6067 19.7812 18.2822C19.3237 18.9578 18.673 19.484 17.9121 19.7949C17.1514 20.1057 16.3144 20.1877 15.5068 20.0293C14.6991 19.8708 13.9564 19.4797 13.374 18.9053C12.7917 18.3308 12.3951 17.5985 12.2344 16.8018C12.0737 16.0049 12.1565 15.1784 12.4717 14.4277C12.7869 13.6772 13.3202 13.0353 14.0049 12.584C14.6896 12.1327 15.4949 11.8917 16.3184 11.8916ZM17.3535 13.5361C16.8595 13.3343 16.3155 13.2809 15.791 13.3838C15.2667 13.4867 14.7853 13.7413 14.4072 14.1143C14.0292 14.4872 13.7713 14.9622 13.667 15.4795C13.5627 15.9968 13.6167 16.5332 13.8213 17.0205C14.0259 17.5078 14.3719 17.9247 14.8164 18.2178C15.2609 18.5107 15.7838 18.6669 16.3184 18.667C17.0354 18.667 17.7234 18.3859 18.2305 17.8857C18.7375 17.3856 19.0225 16.7073 19.0225 16C19.0225 15.4725 18.8635 14.9571 18.5664 14.5186C18.2693 14.08 17.8475 13.738 17.3535 13.5361ZM20.6475 10.7695C21.1849 10.7695 21.6211 11.2003 21.6211 11.7305C21.6208 12.2604 21.1848 12.6904 20.6475 12.6904C20.1102 12.6904 19.6751 12.2604 19.6748 11.7305C19.6748 11.2003 20.11 10.7696 20.6475 10.7695Z" fill="#171717"/>
</g>
<defs>
<clipPath id="clip0_702_3068">
<rect width="16.2198" height="16" fill="white" transform="translate(8.20898 8)"/>
</clipPath>
</defs>
</svg>
