<svg width="34" height="32" viewBox="0 0 34 32" fill="none" xmlns="http://www.w3.org/2000/svg">
<ellipse cx="16.8682" cy="16" rx="16.2198" ry="16" fill="white"/>
<g clip-path="url(#clip0_702_3071)">
<path d="M13.1084 22.8696H10.0407V12.9568H13.2418V22.8696H13.1084ZM11.6412 11.6525C11.1492 11.6425 10.6801 11.4469 10.3321 11.1066C9.98412 10.7663 9.7841 10.3076 9.77389 9.82647C9.76842 9.58521 9.81299 9.34537 9.9049 9.12141C9.99681 8.89745 10.1342 8.69401 10.3087 8.52337C10.4832 8.35273 10.6912 8.21843 10.9202 8.12855C11.1492 8.03867 11.3945 7.99509 11.6412 8.00044C11.888 7.99509 12.1332 8.03867 12.3623 8.12855C12.5913 8.21843 12.7993 8.35273 12.9738 8.52337C13.1483 8.69401 13.2857 8.89745 13.3776 9.12141C13.4695 9.34537 13.5141 9.58521 13.5086 9.82647C13.4544 10.2925 13.2402 10.7267 12.901 11.0584C12.5619 11.39 12.1178 11.5995 11.6412 11.6525ZM24.9795 22.8696H21.7783V18.0436C21.7783 16.8697 21.7783 15.435 20.1777 15.435C18.5771 15.435 18.3104 16.7393 18.3104 18.0436V23H15.1092V12.9568H18.177V14.2611C18.4756 13.7651 18.9063 13.3576 19.423 13.082C19.9397 12.8064 20.5232 12.673 21.1114 12.696C24.3126 12.696 24.8461 14.7828 24.8461 17.3915V22.8696H24.9795Z" fill="#171717"/>
</g>
<defs>
<clipPath id="clip0_702_3071">
<rect width="16.2198" height="16" fill="white" transform="translate(8.75977 8)"/>
</clipPath>
</defs>
</svg>
