<svg width="24" height="25" viewBox="0 0 24 25" fill="none" xmlns="http://www.w3.org/2000/svg">
<path fill-rule="evenodd" clip-rule="evenodd" d="M12 11.0002C13.933 11.0002 15.5 9.43324 15.5 7.50024C15.5 5.56725 13.933 4.00024 12 4.00024C10.067 4.00024 8.5 5.56725 8.5 7.50024C8.5 9.43324 10.067 11.0002 12 11.0002ZM12 12.5002C14.7614 12.5002 17 10.2617 17 7.50024C17 4.73882 14.7614 2.50024 12 2.50024C9.23858 2.50024 7 4.73882 7 7.50024C7 10.2617 9.23858 12.5002 12 12.5002Z" fill="white"/>
<path fill-rule="evenodd" clip-rule="evenodd" d="M9 16.2502C6.65279 16.2502 4.75 18.153 4.75 20.5002V21.5002C4.75 21.9145 4.41421 22.2502 4 22.2502C3.58579 22.2502 3.25 21.9145 3.25 21.5002V20.5002C3.25 17.3246 5.82436 14.7502 9 14.7502H15C18.1756 14.7502 20.75 17.3246 20.75 20.5002V21.5002C20.75 21.9145 20.4142 22.2502 20 22.2502C19.5858 22.2502 19.25 21.9145 19.25 21.5002V20.5002C19.25 18.153 17.3472 16.2502 15 16.2502H9Z" fill="white"/>
</svg>
