<svg width="33" height="32" viewBox="0 0 33 32" fill="none" xmlns="http://www.w3.org/2000/svg">
<ellipse cx="16.7686" cy="16" rx="16.2198" ry="16" fill="white"/>
<g clip-path="url(#clip0_702_3065)">
<path d="M24.878 11.5C24.2697 11.8 23.6615 11.9 22.9519 12C23.6615 11.6 24.1684 11 24.3711 10.2C23.7629 10.6 23.0533 10.8 22.2423 11C21.634 10.4 20.7217 10 19.8093 10C18.0859 10 16.5653 11.5 16.5653 13.3C16.5653 13.6 16.5653 13.8 16.6667 14C13.9296 13.9 11.3953 12.6 9.77331 10.6C9.46919 11.1 9.36782 11.6 9.36782 12.3C9.36782 13.4 9.97606 14.4 10.8884 15C10.3816 15 9.87469 14.8 9.36782 14.6C9.36782 16.2 10.4829 17.5 12.0035 17.8C11.6994 17.9 11.3953 17.9 11.0912 17.9C10.8884 17.9 10.6857 17.9 10.4829 17.8C10.8884 19.1 12.1049 20.1 13.6255 20.1C12.5104 21 11.0912 21.5 9.46919 21.5C9.16507 21.5 8.96232 21.5 8.6582 21.5C10.1788 22.4 11.9022 23 13.7269 23C19.8093 23 23.1546 18 23.1546 13.7C23.1546 13.6 23.1546 13.4 23.1546 13.3C23.8642 12.8 24.4725 12.2 24.878 11.5Z" fill="#171717"/>
</g>
<defs>
<clipPath id="clip0_702_3065">
<rect width="16.2198" height="16" fill="white" transform="translate(8.6582 8)"/>
</clipPath>
</defs>
</svg>
