<svg width="19" height="20" viewBox="0 0 19 20" fill="none" xmlns="http://www.w3.org/2000/svg">
<path fill-rule="evenodd" clip-rule="evenodd" d="M15.8723 15.3119C17.1996 13.7439 18 11.7155 18 9.50024C18 4.52968 13.9706 0.500244 9 0.500244C4.02944 0.500244 0 4.52968 0 9.50024C0 14.4708 4.02944 18.5002 9 18.5002C11.2153 18.5002 13.2436 17.6999 14.8116 16.3725L17.4697 19.0306C17.7626 19.3235 18.2374 19.3235 18.5303 19.0306C18.8232 18.7377 18.8232 18.2628 18.5303 17.9699L15.8723 15.3119ZM16.5 9.50024C16.5 13.6424 13.1421 17.0002 9 17.0002C4.85786 17.0002 1.5 13.6424 1.5 9.50024C1.5 5.35811 4.85786 2.00024 9 2.00024C13.1421 2.00024 16.5 5.35811 16.5 9.50024Z" fill="white"/>
</svg>
