<svg width="45" height="45" viewBox="0 0 45 45" fill="none" xmlns="http://www.w3.org/2000/svg">
<path d="M14.5134 40.4487C9.50995 42.1133 6.4074 41.4435 4.98909 40.0154C3.57079 38.5872 2.89118 35.4847 4.55572 30.491C5.08759 28.8954 5.82629 27.2112 6.77183 25.4777C8.42652 27.8219 10.3865 30.1463 12.6223 32.3821C14.8581 34.6179 17.1826 36.5779 19.5267 38.2326C17.7933 39.1782 16.109 39.9267 14.5134 40.4487ZM2.75329 2.78478C-1.10766 6.64573 -0.0143807 14.4267 4.8315 22.513C-0.0143807 30.5994 -1.10766 38.3804 2.75329 42.2413C6.61424 46.1023 14.3952 45.009 22.4816 40.1631C30.5679 45.009 38.3489 46.1023 42.2098 42.2413C46.0708 38.3804 44.9775 30.5994 40.1316 22.513C44.9775 14.4267 46.0708 6.64573 42.2098 2.78478C38.3489 -1.07617 30.5679 0.0171134 22.4816 4.863C14.3952 0.0171134 6.61424 -1.07617 2.75329 2.78478ZM14.8483 30.1463C12.3564 27.6544 10.2585 25.064 8.56441 22.513C10.2585 19.9621 12.3663 17.3618 14.8483 14.8798C17.3303 12.3978 19.9306 10.29 22.4816 8.5959C25.0325 10.29 27.6328 12.3978 30.1148 14.8798C32.5968 17.3618 34.7046 19.9621 36.3987 22.513C34.7046 25.064 32.5968 27.6643 30.1148 30.1463C27.6328 32.6283 25.0325 34.7361 22.4816 36.4302C19.9306 34.7361 17.3303 32.6283 14.8483 30.1463ZM12.6125 12.644C10.3767 14.8798 8.41667 17.2042 6.76198 19.5484C5.81644 17.8149 5.06789 16.1307 4.54587 14.5351C2.88133 9.53159 3.56094 6.42905 4.97924 5.01074C6.39755 3.59243 9.50995 2.91282 14.5036 4.57737C16.0992 5.10923 17.7834 5.84793 19.5169 6.79347C17.1728 8.44816 14.8483 10.4082 12.6125 12.644ZM32.3408 12.644C30.105 10.4082 27.7805 8.44816 25.4364 6.79347C27.1698 5.84793 28.8541 5.09938 30.4497 4.57737C35.4532 2.91282 38.5557 3.59243 39.974 5.01074C41.3923 6.42905 42.0719 9.54144 40.4074 14.5351C39.8755 16.1307 39.1368 17.8149 38.1913 19.5484C36.5366 17.2042 34.5766 14.8798 32.3408 12.644ZM32.3408 32.3723C34.5766 30.1365 36.5366 27.812 38.1913 25.4679C39.1368 27.2013 39.8854 28.8856 40.4074 30.4812C42.0719 35.4846 41.4022 38.5872 39.974 40.0055C38.5459 41.4238 35.4433 42.1034 30.4497 40.4389C28.8541 39.907 27.1698 39.1683 25.4364 38.2228C27.7805 36.5681 30.105 34.6081 32.3408 32.3723ZM22.4816 24.8769C23.7915 24.8473 24.8257 23.7738 24.7962 22.4638C24.7666 21.1538 23.693 20.1197 22.3831 20.1492C21.0731 20.1788 20.0389 21.2523 20.0685 22.5623C20.098 23.8723 21.1716 24.9064 22.4816 24.8769Z" fill="white"/>
</svg>
